<?xml version="1.0" encoding="UTF-8" standalone="no"?>
<!-- Created with Inkscape (http://www.inkscape.org/) -->

<svg
   width="50mm"
   height="50mm"
   viewBox="0 0 50 50"
   version="1.1"
   id="svg5"
   xmlns="http://www.w3.org/2000/svg"
   xmlns:svg="http://www.w3.org/2000/svg">
  <defs
     id="defs2">
    <filter
       style="color-interpolation-filters:sRGB"
       id="filter1688"
       x="-0.259019"
       y="-0.25899209"
       width="1.518038"
       height="1.5179842">
      <feGaussianBlur
         stdDeviation="21.792183"
         id="feGaussianBlur1690" />
    </filter>
  </defs>
  <g
     id="layer1">
    <path
       style="mix-blend-mode:normal;fill:#ff8c00;fill-opacity:0.999378;stroke:none;stroke-width:5.66929;stroke-linecap:round;stroke-linejoin:bevel;paint-order:fill markers stroke;filter:url(#filter1688)"
       id="path868"
       d="M 81.825171,59.448113 25.752573,21.346464 73.55986,69.412411 22.819947,24.453172 64.0882,78.237958 19.514121,27.159358 53.565716,85.779838 15.889377,29.420586 42.165188,91.914214 12.005232,31.199728 30.073812,96.54036 7.9254648,32.467569 17.490127,99.582315 3.7170641,33.203292 4.620757,100.99013 -0.55086795,33.394817 -8.3229826,100.74069 -4.8082519,33.038999 -21.128556,98.838083 -8.9851818,32.141679 -33.585697,95.31356 -13.013072,30.717593 -45.489858,90.224989 -16.825786,28.790123 -56.645575,83.655925 -20.360718,26.390918 -66.86967,75.714231 -23.559825,23.559374 -75.994264,66.530311 -26.370577,20.341984 -83.869532,56.254963 -28.746822,16.791578 -90.366161,45.056908 -30.649543,12.966453 -95.377478,33.120019 -32.047496,8.929418 -98.821196,20.640299 -32.917727,4.7467606 -100.64077,7.8226643 -33.245947,0.48716007 -100.80632,-5.12242 l 67.779553,1.3429789 -66.28837,-14.2029549 67.051351,9.9994106 -63.927909,-22.5631176 65.222164,18.491652 -60.517755,-30.552794 62.322031,26.680261 -56.1139,-38.040795 58.398572,34.430781 -50.788658,-44.904166 53.51621,41.615948 -44.629465,-51.030214 47.755113,48.117783 -37.737459,-56.318345 41.209879,53.829525 -30.225805,-60.681732 33.987979,58.657387 -22.217844,-64.048725 26.2079985,62.522097 -13.8450665,-66.364041 17.9976826,65.360196 -5.2449536,-67.589665 9.4918457,67.125087 L 2.038155,-100.95132 2.8683078,-33.163547 14.939318,-99.873086 7.0941472,-32.535688 27.596681,-97.153936 11.205004,-31.372595 39.80241,-92.838522 15.133377,-29.693367 51.356088,-86.997704 18.814763,-27.525576 62.068002,-79.727388 22.188715,-24.904817 71.762265,-71.146951 25.199831,-21.874123 80.279696,-61.397285 27.798669,-18.483258 87.480439,-50.638479 29.942557,-14.7879 93.246259,-39.047192 31.596292,-10.848727 97.48248,-26.813752 32.732719,-6.730419 100.11954,-14.139033 33.333178,-2.5005994 101.11415,-1.231153 33.387811,1.7712785 100.44997,11.697941 32.895719,6.0150706 98.137906,24.435954 31.864983,10.161094 94.215922,36.773728 30.312528,14.141271 88.748418,48.508677 28.263845,17.890247 Z"
       transform="matrix(0.21507951,0,0,0.21507951,24.963834,24.974795)" />
  </g>
</svg>
